<svg width="14" height="14" viewBox="0 0 14 14" fill="none" xmlns="http://www.w3.org/2000/svg">
<path d="M2.36859 0.723963L7.00059 5.35596L11.6086 0.747963C11.7104 0.639624 11.833 0.552957 11.9691 0.493158C12.1052 0.433359 12.2519 0.401661 12.4006 0.399963C12.7188 0.399963 13.0241 0.526392 13.2491 0.751435C13.4742 0.976479 13.6006 1.2817 13.6006 1.59996C13.6034 1.74709 13.5761 1.89323 13.5204 2.02942C13.4647 2.16561 13.3817 2.28899 13.2766 2.39196L8.60859 6.99996L13.2766 11.668C13.4744 11.8615 13.5903 12.1235 13.6006 12.4C13.6006 12.7182 13.4742 13.0234 13.2491 13.2485C13.0241 13.4735 12.7188 13.6 12.4006 13.6C12.2477 13.6063 12.0951 13.5808 11.9525 13.525C11.81 13.4692 11.6806 13.3844 11.5726 13.276L7.00059 8.64396L2.38059 13.264C2.27919 13.3687 2.15806 13.4523 2.02419 13.51C1.89031 13.5676 1.74634 13.5982 1.60059 13.6C1.28233 13.6 0.977101 13.4735 0.752058 13.2485C0.527014 13.0234 0.400586 12.7182 0.400586 12.4C0.397788 12.2528 0.425084 12.1067 0.4808 11.9705C0.536515 11.8343 0.619474 11.7109 0.724586 11.608L5.39259 6.99996L0.724586 2.33196C0.526808 2.13847 0.410833 1.87646 0.400586 1.59996C0.400586 1.2817 0.527014 0.976479 0.752058 0.751435C0.977101 0.526392 1.28233 0.399963 1.60059 0.399963C1.88859 0.403563 2.16459 0.519963 2.36859 0.723963Z" fill="#353E54"/>
</svg>
