<svg width="16" height="16" viewBox="0 0 16 16" fill="none" xmlns="http://www.w3.org/2000/svg">
<path d="M14.1875 0.96875H5.1875C4.96372 0.96875 4.74911 1.05764 4.59088 1.21588C4.43264 1.37411 4.34375 1.58872 4.34375 1.8125V4.34375H1.8125C1.58872 4.34375 1.37411 4.43264 1.21588 4.59088C1.05764 4.74911 0.96875 4.96372 0.96875 5.1875V14.1875C0.96875 14.4113 1.05764 14.6259 1.21588 14.7841C1.37411 14.9424 1.58872 15.0312 1.8125 15.0312H10.8125C11.0363 15.0312 11.2509 14.9424 11.4091 14.7841C11.5674 14.6259 11.6562 14.4113 11.6562 14.1875V11.6562H14.1875C14.4113 11.6562 14.6259 11.5674 14.7841 11.4091C14.9424 11.2509 15.0312 11.0363 15.0312 10.8125V1.8125C15.0312 1.58872 14.9424 1.37411 14.7841 1.21588C14.6259 1.05764 14.4113 0.96875 14.1875 0.96875ZM9.96875 13.3438H2.65625V6.03125H9.96875V13.3438ZM13.3438 9.96875H11.6562V5.1875C11.6562 4.96372 11.5674 4.74911 11.4091 4.59088C11.2509 4.43264 11.0363 4.34375 10.8125 4.34375H6.03125V2.65625H13.3438V9.96875Z" fill="#353E54"/>
</svg>
