<svg width="18" height="17" viewBox="0 0 18 17" fill="none" xmlns="http://www.w3.org/2000/svg">
<path d="M17.0861 6.75C16.9989 6.48092 16.8338 6.24376 16.6118 6.06853C16.3898 5.8933 16.1207 5.78789 15.8387 5.76563L11.8598 5.4443L10.3241 1.7311C10.2162 1.46866 10.0327 1.24422 9.79701 1.08627C9.56127 0.928323 9.28392 0.843994 9.00016 0.843994C8.7164 0.843994 8.43904 0.928323 8.20331 1.08627C7.96757 1.24422 7.78409 1.46866 7.67617 1.7311L6.14195 5.445L2.16297 5.76563C1.88047 5.78893 1.61116 5.8952 1.38888 6.0711C1.1666 6.247 1.00126 6.48467 0.913658 6.75426C0.826052 7.02384 0.820079 7.3133 0.896491 7.58627C0.972903 7.85923 1.12829 8.10352 1.34313 8.28844L4.37922 10.9069L3.45109 14.8233C3.3834 15.0994 3.39941 15.3894 3.4971 15.6564C3.59478 15.9234 3.76971 16.1553 3.99961 16.3225C4.22952 16.4898 4.50399 16.5848 4.78809 16.5956C5.07219 16.6063 5.35305 16.5322 5.59492 16.3828L9.00016 14.2868L12.4054 16.3828C12.6472 16.5312 12.9276 16.6046 13.2111 16.5935C13.4946 16.5825 13.7685 16.4876 13.998 16.3209C14.2275 16.1541 14.4024 15.923 14.5006 15.6568C14.5987 15.3906 14.6156 15.1012 14.5492 14.8254L13.6211 10.909L16.6572 8.29055C16.8733 8.10518 17.0295 7.85977 17.1058 7.58548C17.1822 7.31118 17.1753 7.02038 17.0861 6.75ZM12.1312 9.96328C12.0141 10.0642 11.927 10.1954 11.8794 10.3424C11.8318 10.4895 11.8255 10.6468 11.8612 10.7972L12.7675 14.625L9.44242 12.5803C9.30943 12.4985 9.15632 12.4551 9.00016 12.4551C8.84399 12.4551 8.69089 12.4985 8.55789 12.5803L5.23281 14.625L6.13914 10.8C6.17484 10.6496 6.16854 10.4923 6.12092 10.3452C6.07331 10.1982 5.98621 10.067 5.86914 9.9661L2.89703 7.39969L6.79234 7.08539C6.94736 7.07294 7.09591 7.01789 7.2216 6.92632C7.3473 6.83475 7.44524 6.71022 7.50461 6.56649L9.00016 2.94539L10.4957 6.56649C10.5551 6.71022 10.653 6.83475 10.7787 6.92632C10.9044 7.01789 11.053 7.07294 11.208 7.08539L15.1033 7.39969L12.1312 9.96328Z" fill="#FFD700"/>
<path d="M12.1312 9.96328C12.0141 10.0642 11.927 10.1954 11.8794 10.3424C11.8318 10.4895 11.8255 10.6468 11.8612 10.7972L12.7675 14.625L9.44242 12.5803C9.30943 12.4985 9.15632 12.4551 9.00016 12.4551C8.84399 12.4551 8.69089 12.4985 8.55789 12.5803L5.23281 14.625L6.13914 10.8C6.17484 10.6496 6.16854 10.4923 6.12092 10.3452C6.07331 10.1982 5.98621 10.067 5.86914 9.9661L2.89703 7.39969L6.79234 7.08539C6.94736 7.07294 7.09591 7.01789 7.2216 6.92632C7.3473 6.83475 7.44524 6.71022 7.50461 6.56649L9.00016 2.94539L10.4957 6.56649C10.5551 6.71022 10.653 6.83475 10.7787 6.92632C10.9044 7.01789 11.053 7.07294 11.208 7.08539L15.1033 7.39969L12.1312 9.96328Z" fill="#FFD700"/>
<path d="M17.9202 6.37369C17.824 6.08331 17.6419 5.82736 17.3969 5.63826C17.1519 5.44915 16.8551 5.33539 16.544 5.31137L12.1541 4.96459L10.4599 0.95735C10.3409 0.674134 10.1384 0.431919 9.87836 0.261463C9.61828 0.0910064 9.31228 0 8.99922 0C8.68616 0 8.38016 0.0910064 8.12008 0.261463C7.86001 0.431919 7.65758 0.674134 7.53852 0.95735L5.84587 4.96535L1.45599 5.31137C1.14432 5.33651 0.847193 5.4512 0.601959 5.64103C0.356724 5.83086 0.174319 6.08735 0.077666 6.37828C-0.0189872 6.66921 -0.0255765 6.9816 0.0587261 7.27618C0.143029 7.57076 0.314462 7.83439 0.551483 8.03396L3.9011 10.8597L2.87713 15.0863C2.80245 15.3843 2.82012 15.6973 2.92789 15.9854C3.03565 16.2735 3.22865 16.5238 3.48229 16.7043C3.73594 16.8847 4.03876 16.9873 4.3522 16.9989C4.66563 17.0105 4.9755 16.9306 5.24234 16.7693L8.99922 14.5073L12.7561 16.7693C13.0229 16.9295 13.3322 17.0086 13.645 16.9967C13.9578 16.9848 14.2599 16.8824 14.5132 16.7024C14.7664 16.5225 14.9594 16.2731 15.0676 15.9858C15.1759 15.6985 15.1946 15.3862 15.1213 15.0886L14.0973 10.862L17.447 8.03623C17.6854 7.83619 17.8577 7.57134 17.9419 7.27533C18.0262 6.97931 18.0186 6.66549 17.9202 6.37369ZM12.4536 9.84143C12.3244 9.95035 12.2283 10.0919 12.1758 10.2506C12.1233 10.4093 12.1163 10.5791 12.1557 10.7414L13.1556 14.8723L9.48716 12.6657C9.34043 12.5774 9.17152 12.5306 8.99922 12.5306C8.82693 12.5306 8.65801 12.5774 8.51129 12.6657L4.84284 14.8723L5.84276 10.7444C5.88215 10.5821 5.87519 10.4123 5.82266 10.2536C5.77013 10.0949 5.67404 9.95339 5.54488 9.84446L2.26585 7.07483L6.56342 6.73564C6.73444 6.7222 6.89833 6.66279 7.03701 6.56397C7.17568 6.46515 7.28373 6.33076 7.34924 6.17565L8.99922 2.2678L10.6492 6.17565C10.7147 6.33076 10.8228 6.46515 10.9614 6.56397C11.1001 6.66279 11.264 6.7222 11.435 6.73564L15.7326 7.07483L12.4536 9.84143Z" fill="#353E54"/>
</svg>
