<svg width="17" height="16" viewBox="0 0 17 16" fill="none" xmlns="http://www.w3.org/2000/svg">
<path d="M16.2428 5.90601C16.1556 5.63693 15.9906 5.39977 15.7685 5.22454C15.5465 5.04931 15.2775 4.94389 14.9955 4.92163L11.0165 4.60031L9.48088 0.887103C9.37296 0.624668 9.18948 0.400226 8.95375 0.242277C8.71801 0.0843286 8.44065 0 8.1569 0C7.87314 0 7.59578 0.0843286 7.36004 0.242277C7.12431 0.400226 6.94083 0.624668 6.83291 0.887103L5.29869 4.60101L1.31971 4.92163C1.03721 4.94493 0.767896 5.05121 0.545615 5.22711C0.323335 5.40301 0.158003 5.64068 0.0703965 5.91026C-0.01721 6.17984 -0.0231826 6.46931 0.0532293 6.74227C0.129641 7.01524 0.285028 7.25953 0.499864 7.44445L3.53596 10.0629L2.60783 13.9793C2.54014 14.2554 2.55615 14.5454 2.65384 14.8124C2.75152 15.0794 2.92645 15.3113 3.15635 15.4785C3.38626 15.6458 3.66073 15.7408 3.94483 15.7516C4.22893 15.7623 4.50979 15.6882 4.75166 15.5388L8.1569 13.4428L11.5621 15.5388C11.8039 15.6872 12.0843 15.7606 12.3678 15.7495C12.6513 15.7385 12.9252 15.6436 13.1547 15.4769C13.3843 15.3101 13.5592 15.079 13.6573 14.8128C13.7554 14.5466 13.7724 14.2572 13.706 13.9814L12.7778 10.065L15.8139 7.44656C16.03 7.26119 16.1862 7.01578 16.2626 6.74148C16.3389 6.46719 16.3321 6.17639 16.2428 5.90601ZM11.2879 9.11929C11.1708 9.22022 11.0837 9.35137 11.0361 9.49843C10.9885 9.64549 10.9822 9.8028 11.0179 9.9532L11.9242 13.781L8.59916 11.7363C8.46617 11.6545 8.31306 11.6111 8.1569 11.6111C8.00073 11.6111 7.84762 11.6545 7.71463 11.7363L4.38955 13.781L5.29588 9.95601C5.33158 9.80561 5.32528 9.6483 5.27766 9.50124C5.23005 9.35419 5.14295 9.22303 5.02588 9.1221L2.05377 6.5557L5.94908 6.2414C6.1041 6.22895 6.25265 6.17389 6.37834 6.08232C6.50404 5.99075 6.60198 5.86622 6.66135 5.72249L8.1569 2.1014L9.65244 5.72249C9.71181 5.86622 9.80975 5.99075 9.93545 6.08232C10.0611 6.17389 10.2097 6.22895 10.3647 6.2414L14.26 6.5557L11.2879 9.11929Z" fill="#FFD700"/>
<path d="M11.2879 9.11929C11.1708 9.22022 11.0837 9.35137 11.0361 9.49843C10.9885 9.64549 10.9822 9.8028 11.0179 9.9532L11.9242 13.781L8.59916 11.7363C8.46617 11.6545 8.31306 11.6111 8.1569 11.6111C8.00073 11.6111 7.84762 11.6545 7.71463 11.7363L4.38955 13.781L5.29588 9.95601C5.33158 9.80561 5.32528 9.6483 5.27766 9.50124C5.23005 9.35419 5.14295 9.22303 5.02588 9.1221L2.05377 6.5557L5.94908 6.2414C6.1041 6.22895 6.25265 6.17389 6.37834 6.08232C6.50404 5.99075 6.60198 5.86622 6.66135 5.72249L8.1569 2.1014L9.65244 5.72249C9.71181 5.86622 9.80975 5.99075 9.93545 6.08232C10.0611 6.17389 10.2097 6.22895 10.3647 6.2414L14.26 6.5557L11.2879 9.11929Z" fill="#FFD700"/>
</svg>
