<svg width="18" height="18" viewBox="0 0 18 18" fill="none" xmlns="http://www.w3.org/2000/svg">
<path d="M17.0861 6.75C16.9989 6.48092 16.8338 6.24376 16.6118 6.06853C16.3898 5.8933 16.1207 5.78789 15.8387 5.76563L11.8598 5.4443L10.3241 1.7311C10.2162 1.46866 10.0327 1.24422 9.79701 1.08627C9.56127 0.928323 9.28392 0.843994 9.00016 0.843994C8.7164 0.843994 8.43904 0.928323 8.20331 1.08627C7.96757 1.24422 7.78409 1.46866 7.67617 1.7311L6.14195 5.445L2.16297 5.76563C1.88047 5.78893 1.61116 5.8952 1.38888 6.0711C1.1666 6.247 1.00126 6.48467 0.913658 6.75426C0.826052 7.02384 0.820079 7.3133 0.896491 7.58627C0.972903 7.85923 1.12829 8.10352 1.34313 8.28844L4.37922 10.9069L3.45109 14.8233C3.3834 15.0994 3.39941 15.3894 3.4971 15.6564C3.59478 15.9234 3.76971 16.1553 3.99961 16.3225C4.22952 16.4898 4.50399 16.5848 4.78809 16.5956C5.07219 16.6063 5.35305 16.5322 5.59492 16.3828L9.00016 14.2868L12.4054 16.3828C12.6472 16.5312 12.9276 16.6046 13.2111 16.5935C13.4946 16.5825 13.7685 16.4876 13.998 16.3209C14.2275 16.1541 14.4024 15.923 14.5006 15.6568C14.5987 15.3906 14.6156 15.1012 14.5492 14.8254L13.6211 10.909L16.6572 8.29055C16.8733 8.10518 17.0295 7.85977 17.1058 7.58548C17.1822 7.31118 17.1753 7.02038 17.0861 6.75ZM12.1312 9.96328C12.0141 10.0642 11.927 10.1954 11.8794 10.3424C11.8318 10.4895 11.8255 10.6468 11.8612 10.7972L12.7675 14.625L9.44242 12.5803C9.30943 12.4985 9.15632 12.4551 9.00016 12.4551C8.84399 12.4551 8.69089 12.4985 8.55789 12.5803L5.23281 14.625L6.13914 10.8C6.17484 10.6496 6.16854 10.4923 6.12092 10.3452C6.07331 10.1982 5.98621 10.067 5.86914 9.9661L2.89703 7.39969L6.79234 7.08539C6.94736 7.07294 7.09591 7.01789 7.2216 6.92632C7.3473 6.83475 7.44524 6.71022 7.50461 6.56649L9.00016 2.94539L10.4957 6.56649C10.5551 6.71022 10.653 6.83475 10.7787 6.92632C10.9044 7.01789 11.053 7.07294 11.208 7.08539L15.1033 7.39969L12.1312 9.96328Z" fill="#353E54"/>
</svg>
