<svg width="99" height="100" viewBox="0 0 99 100" fill="none" xmlns="http://www.w3.org/2000/svg">
<path d="M28.8663 15.2778C28.8663 10.6482 32.3053 6.01852 38.0369 6.01852H83.8895C93.06 6.01852 93.06 15.2778 93.06 15.2778C93.06 15.2778 93.06 66.2037 93.06 73.1481C93.06 80.0926 87.3284 82.4074 83.8895 82.4074C80.4505 82.4074 72.4263 82.4074 72.4263 82.4074" stroke="white" stroke-width="5"/>
<path d="M8.64734 17.7778H67.4263C68.807 17.7778 69.9263 18.8971 69.9263 20.2778V91.2963C69.9263 92.677 68.807 93.7963 67.4263 93.7963H8.64733C7.26662 93.7963 6.14734 92.677 6.14734 91.2963V20.2778C6.14734 18.8971 7.26662 17.7778 8.64734 17.7778Z" stroke="white" stroke-width="5"/>
</svg>
