<svg width="127" height="90" viewBox="0 0 127 90" fill="none" xmlns="http://www.w3.org/2000/svg">
<mask id="path-1-inside-1_23_7" fill="white">
<rect x="94.7" y="60" width="15.6" height="10" rx="4"/>
</mask>
<rect x="94.7" y="60" width="15.6" height="10" rx="4" stroke="white" stroke-width="10" mask="url(#path-1-inside-1_23_7)"/>
<mask id="path-2-inside-2_23_7" fill="white">
<rect x="16.7" y="60" width="15.6" height="10" rx="4"/>
</mask>
<rect x="16.7" y="60" width="15.6" height="10" rx="4" stroke="white" stroke-width="10" mask="url(#path-2-inside-2_23_7)"/>
<rect x="7.5" y="7.5" width="112" height="75" rx="7.5" stroke="white" stroke-width="5"/>
<mask id="path-4-inside-3_23_7" fill="white">
<rect x="16.7" y="20" width="13.26" height="10" rx="4"/>
</mask>
<rect x="16.7" y="20" width="13.26" height="10" rx="4" stroke="white" stroke-width="10" mask="url(#path-4-inside-3_23_7)"/>
<mask id="path-5-inside-4_23_7" fill="white">
<rect x="37.76" y="20" width="11.7" height="10" rx="4"/>
</mask>
<rect x="37.76" y="20" width="11.7" height="10" rx="4" stroke="white" stroke-width="10" mask="url(#path-5-inside-4_23_7)"/>
<mask id="path-6-inside-5_23_7" fill="white">
<rect x="96.26" y="20" width="14.04" height="10" rx="4"/>
</mask>
<rect x="96.26" y="20" width="14.04" height="10" rx="4" stroke="white" stroke-width="10" mask="url(#path-6-inside-5_23_7)"/>
<mask id="path-7-inside-6_23_7" fill="white">
<rect x="57.26" y="20" width="11.7" height="10" rx="4"/>
</mask>
<rect x="57.26" y="20" width="11.7" height="10" rx="4" stroke="white" stroke-width="10" mask="url(#path-7-inside-6_23_7)"/>
<mask id="path-8-inside-7_23_7" fill="white">
<rect x="76.76" y="20" width="11.7" height="10" rx="4"/>
</mask>
<rect x="76.76" y="20" width="11.7" height="10" rx="4" stroke="white" stroke-width="10" mask="url(#path-8-inside-7_23_7)"/>
<mask id="path-9-inside-8_23_7" fill="white">
<rect x="67.4" y="40" width="11.7" height="10" rx="4"/>
</mask>
<rect x="67.4" y="40" width="11.7" height="10" rx="4" stroke="white" stroke-width="10" mask="url(#path-9-inside-8_23_7)"/>
<mask id="path-10-inside-9_23_7" fill="white">
<rect x="16.7" y="40" width="23.4" height="10" rx="4"/>
</mask>
<rect x="16.7" y="40" width="23.4" height="10" rx="4" stroke="white" stroke-width="10" mask="url(#path-10-inside-9_23_7)"/>
<mask id="path-11-inside-10_23_7" fill="white">
<rect x="47.9" y="40" width="11.7" height="10" rx="4"/>
</mask>
<rect x="47.9" y="40" width="11.7" height="10" rx="4" stroke="white" stroke-width="10" mask="url(#path-11-inside-10_23_7)"/>
<mask id="path-12-inside-11_23_7" fill="white">
<rect x="40.1" y="60" width="46.8" height="10" rx="4"/>
</mask>
<rect x="40.1" y="60" width="46.8" height="10" rx="4" stroke="white" stroke-width="10" mask="url(#path-12-inside-11_23_7)"/>
<mask id="path-13-inside-12_23_7" fill="white">
<rect x="86.9" y="40" width="23.4" height="10" rx="4"/>
</mask>
<rect x="86.9" y="40" width="23.4" height="10" rx="4" stroke="white" stroke-width="10" mask="url(#path-13-inside-12_23_7)"/>
</svg>
