<svg width="90" height="90" viewBox="0 0 90 90" fill="none" xmlns="http://www.w3.org/2000/svg">
<path d="M59 34.5C60.3807 34.5 61.5 33.3807 61.5 32C61.5 30.6193 60.3807 29.5 59 29.5V34.5ZM7.23223 30.2322C6.25592 31.2085 6.25592 32.7915 7.23223 33.7678L23.1421 49.6777C24.1184 50.654 25.7014 50.654 26.6777 49.6777C27.654 48.7014 27.654 47.1184 26.6777 46.1421L12.5355 32L26.6777 17.8579C27.654 16.8816 27.654 15.2986 26.6777 14.3223C25.7014 13.346 24.1184 13.346 23.1421 14.3223L7.23223 30.2322ZM59 29.5L9 29.5V34.5L59 34.5V29.5Z" fill="black"/>
<path d="M32 55.5C30.6193 55.5 29.5 56.6193 29.5 58C29.5 59.3807 30.6193 60.5 32 60.5V55.5ZM83.7678 59.7678C84.7441 58.7915 84.7441 57.2085 83.7678 56.2322L67.8579 40.3223C66.8816 39.346 65.2986 39.346 64.3223 40.3223C63.346 41.2986 63.346 42.8816 64.3223 43.8579L78.4645 58L64.3223 72.1421C63.346 73.1184 63.346 74.7014 64.3223 75.6777C65.2986 76.654 66.8816 76.654 67.8579 75.6777L83.7678 59.7678ZM32 60.5L82 60.5V55.5L32 55.5V60.5Z" fill="black"/>
</svg>
